<svg id="Lag_1" data-name="Lag 1" xmlns="http://www.w3.org/2000/svg" viewBox="0 0 100.16 40.76"><defs><style>.cls-1{fill:#c95655;}</style></defs><title>GOCO</title><path class="cls-1" d="M10.25,40.76a10.1,10.1,0,0,1-6-1.6A9,9,0,0,1,1,34.5a23.52,23.52,0,0,1-1-7.34V13.8A26.56,26.56,0,0,1,.91,6.33,8.42,8.42,0,0,1,4.17,1.63,11.32,11.32,0,0,1,10.7,0a12.54,12.54,0,0,1,6,1.26A7.32,7.32,0,0,1,20.06,5.1a17.73,17.73,0,0,1,1,6.53v1.48H15.87V11.88a21.55,21.55,0,0,0-.35-4.26,4,4,0,0,0-1.4-2.46,5.48,5.48,0,0,0-3.33-.81A4.83,4.83,0,0,0,7.22,5.47,5.31,5.31,0,0,0,5.84,8.55,32.18,32.18,0,0,0,5.57,13V27.75A22.9,22.9,0,0,0,6,32.53a4.79,4.79,0,0,0,1.6,2.86,5.29,5.29,0,0,0,3.35.94,4.93,4.93,0,0,0,3.35-1,5.47,5.47,0,0,0,1.63-3.06,23.94,23.94,0,0,0,.44-5V24.45H11.29V20.51h10.1V40.27h-3.5l-0.54-4.58a8.39,8.39,0,0,1-2.46,3.65A6.92,6.92,0,0,1,10.25,40.76Z"/><path class="cls-1" d="M37.31,40.71a11.67,11.67,0,0,1-6.46-1.58,8.64,8.64,0,0,1-3.45-4.51,20.66,20.66,0,0,1-1-6.88V12.62a19.37,19.37,0,0,1,1.06-6.78A8.44,8.44,0,0,1,30.88,1.5,12,12,0,0,1,37.31,0a11.71,11.71,0,0,1,6.41,1.53,8.62,8.62,0,0,1,3.43,4.34,19.17,19.17,0,0,1,1.06,6.75V27.8a19.85,19.85,0,0,1-1.06,6.8,9,9,0,0,1-3.43,4.51A11.27,11.27,0,0,1,37.31,40.71Zm0-4.39a5.26,5.26,0,0,0,3.35-.91,4.51,4.51,0,0,0,1.53-2.56A16.8,16.8,0,0,0,42.59,29V11.48a16.17,16.17,0,0,0-.39-3.82A4.26,4.26,0,0,0,40.66,5.2a5.48,5.48,0,0,0-3.35-.86,5.6,5.6,0,0,0-3.38.86,4.2,4.2,0,0,0-1.55,2.46A16.15,16.15,0,0,0,32,11.48V29a16.78,16.78,0,0,0,.39,3.87,4.45,4.45,0,0,0,1.55,2.56A5.37,5.37,0,0,0,37.31,36.33Z"/><path class="cls-1" d="M63.68,40.71a10.69,10.69,0,0,1-6.58-1.77,9.15,9.15,0,0,1-3.25-4.78,23,23,0,0,1-.91-6.7V13.36a24.38,24.38,0,0,1,.91-7A8.53,8.53,0,0,1,57.1,1.65,11.29,11.29,0,0,1,63.68,0a11.08,11.08,0,0,1,5.94,1.38,7.71,7.71,0,0,1,3.16,3.94,17.59,17.59,0,0,1,1,6.16v3.15H68.46V11.83a30.71,30.71,0,0,0-.22-3.92A4.27,4.27,0,0,0,67,5.27a4.73,4.73,0,0,0-3.3-.94,5,5,0,0,0-3.45,1,4.92,4.92,0,0,0-1.4,2.86,25.41,25.41,0,0,0-.32,4.31V28.34A18.26,18.26,0,0,0,59,33.1a4.17,4.17,0,0,0,1.63,2.49,5.54,5.54,0,0,0,3.06.74,4.41,4.41,0,0,0,3.25-1,4.82,4.82,0,0,0,1.23-2.79,30.53,30.53,0,0,0,.25-4.14v-3h5.27v3a21.19,21.19,0,0,1-.89,6.43,8.22,8.22,0,0,1-3.06,4.34A10.37,10.37,0,0,1,63.68,40.71Z"/><path class="cls-1" d="M89.27,40.71a11.67,11.67,0,0,1-6.46-1.58,8.63,8.63,0,0,1-3.45-4.51,20.65,20.65,0,0,1-1-6.88V12.62a19.37,19.37,0,0,1,1.06-6.78A8.45,8.45,0,0,1,82.83,1.5,12,12,0,0,1,89.27,0a11.71,11.71,0,0,1,6.41,1.53A8.63,8.63,0,0,1,99.1,5.87a19.18,19.18,0,0,1,1.06,6.75V27.8a19.86,19.86,0,0,1-1.06,6.8,9,9,0,0,1-3.43,4.51A11.28,11.28,0,0,1,89.27,40.71Zm0-4.39a5.26,5.26,0,0,0,3.35-.91,4.52,4.52,0,0,0,1.53-2.56A16.8,16.8,0,0,0,94.54,29V11.48a16.17,16.17,0,0,0-.39-3.82A4.26,4.26,0,0,0,92.62,5.2a5.48,5.48,0,0,0-3.35-.86,5.6,5.6,0,0,0-3.38.86,4.2,4.2,0,0,0-1.55,2.46,16.12,16.12,0,0,0-.39,3.82V29a16.75,16.75,0,0,0,.39,3.87,4.45,4.45,0,0,0,1.55,2.56A5.36,5.36,0,0,0,89.27,36.33Z"/></svg>